<svg xmlns="http://www.w3.org/2000/svg" viewBox="0 0 120 35"><path fill="#029C43" d="M107 0c-4.4 0-7.8 2.2-9.2 4.8h-.2V0H88.5v34.8h8.8V19.4h8.5c5.9 0 10.3-4.3 10.3-10S113 0 107 0zm-4.3 14.8h-4.2V4.8h4.2c3.5 0 4.8 2.4 4.8 4.9 0 3.3-1.6 5.1-4.8 5.1z"/><path fill="#0178B8" d="M60.6 0L49 20h-.2L37.4 0H28v34.8h9v-21h.2L49 32.3h2.6l11.4-18.4h.2v20.9h8.8V0H60.6zM24 19.3c0-6-4.5-6.8-10.7-6.8H2v22.3h14c6.9 0 11.2-2.5 11.2-8.5 0-3.3-1.6-5.5-4.2-6.3v-.1c2.1-.4 4.2-2.3 4.2-5zm-6.6 6.5c0 1.7-1.8 2.6-4.7 2.6H8.5V20h7.5c2.7 0 4.7.8 4.7 2.6v3.2zm-1.2-10.5c0 2.3-1.9 2.4-3.8 2.4H8.5V10h7.2c2.2 0 4.4.5 4.4 2.5v2.8z"/></svg>