<svg xmlns="http://www.w3.org/2000/svg" viewBox="0 0 2500 811"><path fill="#1434CB" d="M1066.86 810.6H840.48L977.83 0h226.39L1066.86 810.6zM1588.66 0h-178.58c-42.5 0-74.07 11.23-93.59 52.87L973.91 810.6h236.43l47.1-131.28h288.68l27.53 131.28h208.57L1588.66 0zm-247.9 515.17l68.22-184.28 38.6 184.28h-106.82zM2450.45 810.6h-202.9c-36.56 0-61.9-15.52-73.49-51.52L1881.04 0h242.06l161.41 573.16c14.28 49.33 24.32 87.72 24.32 87.72l4.89-22.38 128.51-638.5h208.22L2450.45 810.6zM709.68 259.02C709.68 259.02 612.39 203.4 473.13 203.4c-223.95 0-381.82 119.53-382.72 290.87-.89 125.13 112.56 195.03 198.81 237.2 88.75 43.37 118.52 71.3 118.23 109.91-.55 59.4-71.18 86.82-136.93 86.82-113.84 0-174.52-16.73-267.4-58.11L0 869.6c59 27.52 168 51.51 282.88 52.7 238.25 0 393.18-117.3 394.38-298.63 1.18-99.31-59.83-174.62-191.07-237.2-79.52-40.03-127.13-66.75-126.83-107.5.31-36.9 41.51-76.38 132.18-76.38 95 0 151.72 20.32 195.84 41.53l62.3-241.67z"/></svg>